<mxfile host="app.diagrams.net" modified="2020-07-14T05:33:22.308Z" agent="5.0 (Windows NT 10.0; Win64; x64) AppleWebKit/537.36 (KHTML, like Gecko) Chrome/83.0.4103.116 Safari/537.36" etag="84mb6oCSHyyPxStoVebE" version="13.4.2" type="github">
  <diagram id="qu2YKcgJwEFux7egyNYc" name="Page-1">
    <mxGraphModel dx="1635" dy="770" grid="1" gridSize="11" guides="1" tooltips="1" connect="1" arrows="1" fold="1" page="1" pageScale="1" pageWidth="2000" pageHeight="2000" math="0" shadow="0">
      <root>
        <object label="" id="0">
          <mxCell />
        </object>
        <mxCell id="1" parent="0" />
        <mxCell id="7ZN2Juc46d9L3Nv0C-_P-180" value="Admin" style="rounded=0;whiteSpace=wrap;html=1;" vertex="1" parent="1">
          <mxGeometry x="406.5" y="114" width="100" height="30" as="geometry" />
        </mxCell>
        <mxCell id="7ZN2Juc46d9L3Nv0C-_P-181" value="" style="endArrow=none;html=1;exitX=0.5;exitY=0;exitDx=0;exitDy=0;" edge="1" source="7ZN2Juc46d9L3Nv0C-_P-180" target="7ZN2Juc46d9L3Nv0C-_P-182" parent="1">
          <mxGeometry width="50" height="50" relative="1" as="geometry">
            <mxPoint x="449" y="114" as="sourcePoint" />
            <mxPoint x="484" y="84" as="targetPoint" />
          </mxGeometry>
        </mxCell>
        <mxCell id="7ZN2Juc46d9L3Nv0C-_P-182" value="Aid" style="ellipse;whiteSpace=wrap;html=1;" vertex="1" parent="1">
          <mxGeometry x="419" y="44" width="70" height="40" as="geometry" />
        </mxCell>
        <mxCell id="7ZN2Juc46d9L3Nv0C-_P-183" value="" style="endArrow=none;html=1;entryX=0;entryY=0.5;entryDx=0;entryDy=0;" edge="1" target="7ZN2Juc46d9L3Nv0C-_P-180" parent="1">
          <mxGeometry width="50" height="50" relative="1" as="geometry">
            <mxPoint x="369" y="129" as="sourcePoint" />
            <mxPoint x="399" y="124" as="targetPoint" />
          </mxGeometry>
        </mxCell>
        <mxCell id="7ZN2Juc46d9L3Nv0C-_P-184" value="Name" style="ellipse;whiteSpace=wrap;html=1;" vertex="1" parent="1">
          <mxGeometry x="319" y="109" width="60" height="40" as="geometry" />
        </mxCell>
        <mxCell id="7ZN2Juc46d9L3Nv0C-_P-185" value="Cnic" style="ellipse;whiteSpace=wrap;html=1;" vertex="1" parent="1">
          <mxGeometry x="539" y="109" width="60" height="40" as="geometry" />
        </mxCell>
        <mxCell id="7ZN2Juc46d9L3Nv0C-_P-186" value="" style="endArrow=none;html=1;" edge="1" source="7ZN2Juc46d9L3Nv0C-_P-180" parent="1">
          <mxGeometry width="50" height="50" relative="1" as="geometry">
            <mxPoint x="506.5" y="179" as="sourcePoint" />
            <mxPoint x="539" y="129" as="targetPoint" />
          </mxGeometry>
        </mxCell>
        <mxCell id="7ZN2Juc46d9L3Nv0C-_P-187" value="Email" style="ellipse;whiteSpace=wrap;html=1;" vertex="1" parent="1">
          <mxGeometry x="426.5" y="184" width="60" height="40" as="geometry" />
        </mxCell>
        <mxCell id="7ZN2Juc46d9L3Nv0C-_P-188" value="" style="endArrow=none;html=1;exitX=0.5;exitY=1;exitDx=0;exitDy=0;entryX=0.5;entryY=0;entryDx=0;entryDy=0;" edge="1" source="7ZN2Juc46d9L3Nv0C-_P-180" target="7ZN2Juc46d9L3Nv0C-_P-187" parent="1">
          <mxGeometry width="50" height="50" relative="1" as="geometry">
            <mxPoint x="459" y="154" as="sourcePoint" />
            <mxPoint x="459" y="174" as="targetPoint" />
          </mxGeometry>
        </mxCell>
        <mxCell id="7ZN2Juc46d9L3Nv0C-_P-189" value="Admin" style="rounded=0;whiteSpace=wrap;html=1;" vertex="1" parent="1">
          <mxGeometry x="406.5" y="114" width="100" height="30" as="geometry" />
        </mxCell>
        <mxCell id="7ZN2Juc46d9L3Nv0C-_P-190" value="" style="endArrow=none;html=1;exitX=0.5;exitY=0;exitDx=0;exitDy=0;" edge="1" source="7ZN2Juc46d9L3Nv0C-_P-189" target="7ZN2Juc46d9L3Nv0C-_P-191" parent="1">
          <mxGeometry width="50" height="50" relative="1" as="geometry">
            <mxPoint x="449" y="114" as="sourcePoint" />
            <mxPoint x="484" y="84" as="targetPoint" />
          </mxGeometry>
        </mxCell>
        <mxCell id="7ZN2Juc46d9L3Nv0C-_P-191" value="Aid" style="ellipse;whiteSpace=wrap;html=1;" vertex="1" parent="1">
          <mxGeometry x="419" y="44" width="70" height="40" as="geometry" />
        </mxCell>
        <mxCell id="7ZN2Juc46d9L3Nv0C-_P-192" value="" style="endArrow=none;html=1;entryX=0;entryY=0.5;entryDx=0;entryDy=0;" edge="1" target="7ZN2Juc46d9L3Nv0C-_P-189" parent="1">
          <mxGeometry width="50" height="50" relative="1" as="geometry">
            <mxPoint x="369" y="129" as="sourcePoint" />
            <mxPoint x="399" y="124" as="targetPoint" />
          </mxGeometry>
        </mxCell>
        <mxCell id="7ZN2Juc46d9L3Nv0C-_P-193" value="Name" style="ellipse;whiteSpace=wrap;html=1;" vertex="1" parent="1">
          <mxGeometry x="319" y="109" width="60" height="40" as="geometry" />
        </mxCell>
        <mxCell id="7ZN2Juc46d9L3Nv0C-_P-194" value="Cnic" style="ellipse;whiteSpace=wrap;html=1;" vertex="1" parent="1">
          <mxGeometry x="539" y="109" width="60" height="40" as="geometry" />
        </mxCell>
        <mxCell id="7ZN2Juc46d9L3Nv0C-_P-195" value="" style="endArrow=none;html=1;" edge="1" source="7ZN2Juc46d9L3Nv0C-_P-189" parent="1">
          <mxGeometry width="50" height="50" relative="1" as="geometry">
            <mxPoint x="506.5" y="179" as="sourcePoint" />
            <mxPoint x="539" y="129" as="targetPoint" />
          </mxGeometry>
        </mxCell>
        <mxCell id="7ZN2Juc46d9L3Nv0C-_P-196" value="Email" style="ellipse;whiteSpace=wrap;html=1;" vertex="1" parent="1">
          <mxGeometry x="426.5" y="184" width="60" height="40" as="geometry" />
        </mxCell>
        <mxCell id="7ZN2Juc46d9L3Nv0C-_P-197" value="" style="endArrow=none;html=1;exitX=0.5;exitY=1;exitDx=0;exitDy=0;entryX=0.5;entryY=0;entryDx=0;entryDy=0;" edge="1" source="7ZN2Juc46d9L3Nv0C-_P-189" target="7ZN2Juc46d9L3Nv0C-_P-196" parent="1">
          <mxGeometry width="50" height="50" relative="1" as="geometry">
            <mxPoint x="459" y="154" as="sourcePoint" />
            <mxPoint x="459" y="174" as="targetPoint" />
          </mxGeometry>
        </mxCell>
        <mxCell id="7ZN2Juc46d9L3Nv0C-_P-198" value="Class" style="rounded=0;whiteSpace=wrap;html=1;" vertex="1" parent="1">
          <mxGeometry x="186.5" y="374" width="100" height="30" as="geometry" />
        </mxCell>
        <mxCell id="7ZN2Juc46d9L3Nv0C-_P-199" value="" style="endArrow=none;html=1;exitX=0.5;exitY=0;exitDx=0;exitDy=0;" edge="1" source="7ZN2Juc46d9L3Nv0C-_P-198" target="7ZN2Juc46d9L3Nv0C-_P-200" parent="1">
          <mxGeometry width="50" height="50" relative="1" as="geometry">
            <mxPoint x="229" y="374" as="sourcePoint" />
            <mxPoint x="264" y="344" as="targetPoint" />
          </mxGeometry>
        </mxCell>
        <mxCell id="7ZN2Juc46d9L3Nv0C-_P-200" value="Cid" style="ellipse;whiteSpace=wrap;html=1;" vertex="1" parent="1">
          <mxGeometry x="199" y="304" width="70" height="40" as="geometry" />
        </mxCell>
        <mxCell id="7ZN2Juc46d9L3Nv0C-_P-201" value="" style="endArrow=none;html=1;entryX=0;entryY=0.5;entryDx=0;entryDy=0;" edge="1" target="7ZN2Juc46d9L3Nv0C-_P-198" parent="1">
          <mxGeometry width="50" height="50" relative="1" as="geometry">
            <mxPoint x="149" y="389" as="sourcePoint" />
            <mxPoint x="179" y="384" as="targetPoint" />
          </mxGeometry>
        </mxCell>
        <mxCell id="7ZN2Juc46d9L3Nv0C-_P-202" value="Year" style="ellipse;whiteSpace=wrap;html=1;" vertex="1" parent="1">
          <mxGeometry x="99" y="369" width="60" height="40" as="geometry" />
        </mxCell>
        <mxCell id="7ZN2Juc46d9L3Nv0C-_P-203" value="Sections" style="rounded=0;whiteSpace=wrap;html=1;" vertex="1" parent="1">
          <mxGeometry x="746.5" y="364" width="100" height="30" as="geometry" />
        </mxCell>
        <mxCell id="7ZN2Juc46d9L3Nv0C-_P-204" value="" style="endArrow=none;html=1;exitX=0.5;exitY=0;exitDx=0;exitDy=0;" edge="1" source="7ZN2Juc46d9L3Nv0C-_P-203" target="7ZN2Juc46d9L3Nv0C-_P-205" parent="1">
          <mxGeometry width="50" height="50" relative="1" as="geometry">
            <mxPoint x="789" y="364" as="sourcePoint" />
            <mxPoint x="824" y="334" as="targetPoint" />
          </mxGeometry>
        </mxCell>
        <mxCell id="7ZN2Juc46d9L3Nv0C-_P-205" value="Sid" style="ellipse;whiteSpace=wrap;html=1;" vertex="1" parent="1">
          <mxGeometry x="759" y="294" width="70" height="40" as="geometry" />
        </mxCell>
        <mxCell id="7ZN2Juc46d9L3Nv0C-_P-206" value="" style="endArrow=none;html=1;entryX=0;entryY=0.5;entryDx=0;entryDy=0;" edge="1" target="7ZN2Juc46d9L3Nv0C-_P-203" parent="1">
          <mxGeometry width="50" height="50" relative="1" as="geometry">
            <mxPoint x="709" y="379" as="sourcePoint" />
            <mxPoint x="739" y="374" as="targetPoint" />
          </mxGeometry>
        </mxCell>
        <mxCell id="7ZN2Juc46d9L3Nv0C-_P-207" value="Name" style="ellipse;whiteSpace=wrap;html=1;" vertex="1" parent="1">
          <mxGeometry x="659" y="359" width="60" height="40" as="geometry" />
        </mxCell>
        <mxCell id="7ZN2Juc46d9L3Nv0C-_P-208" value="Admin" style="rounded=0;whiteSpace=wrap;html=1;" vertex="1" parent="1">
          <mxGeometry x="446.5" y="574" width="100" height="30" as="geometry" />
        </mxCell>
        <mxCell id="7ZN2Juc46d9L3Nv0C-_P-209" value="" style="endArrow=none;html=1;exitX=0.5;exitY=0;exitDx=0;exitDy=0;" edge="1" source="7ZN2Juc46d9L3Nv0C-_P-208" target="7ZN2Juc46d9L3Nv0C-_P-210" parent="1">
          <mxGeometry width="50" height="50" relative="1" as="geometry">
            <mxPoint x="489" y="574" as="sourcePoint" />
            <mxPoint x="524" y="544" as="targetPoint" />
          </mxGeometry>
        </mxCell>
        <mxCell id="7ZN2Juc46d9L3Nv0C-_P-210" value="Aid" style="ellipse;whiteSpace=wrap;html=1;" vertex="1" parent="1">
          <mxGeometry x="459" y="504" width="70" height="40" as="geometry" />
        </mxCell>
        <mxCell id="7ZN2Juc46d9L3Nv0C-_P-211" value="" style="endArrow=none;html=1;entryX=0;entryY=0.5;entryDx=0;entryDy=0;" edge="1" target="7ZN2Juc46d9L3Nv0C-_P-208" parent="1">
          <mxGeometry width="50" height="50" relative="1" as="geometry">
            <mxPoint x="409" y="589" as="sourcePoint" />
            <mxPoint x="439" y="584" as="targetPoint" />
          </mxGeometry>
        </mxCell>
        <mxCell id="7ZN2Juc46d9L3Nv0C-_P-212" value="Name" style="ellipse;whiteSpace=wrap;html=1;" vertex="1" parent="1">
          <mxGeometry x="359" y="569" width="60" height="40" as="geometry" />
        </mxCell>
        <mxCell id="7ZN2Juc46d9L3Nv0C-_P-213" value="Cnic" style="ellipse;whiteSpace=wrap;html=1;" vertex="1" parent="1">
          <mxGeometry x="579" y="569" width="60" height="40" as="geometry" />
        </mxCell>
        <mxCell id="7ZN2Juc46d9L3Nv0C-_P-214" value="" style="endArrow=none;html=1;" edge="1" source="7ZN2Juc46d9L3Nv0C-_P-208" parent="1">
          <mxGeometry width="50" height="50" relative="1" as="geometry">
            <mxPoint x="546.5" y="639" as="sourcePoint" />
            <mxPoint x="579" y="589" as="targetPoint" />
          </mxGeometry>
        </mxCell>
        <mxCell id="7ZN2Juc46d9L3Nv0C-_P-215" value="Email" style="ellipse;whiteSpace=wrap;html=1;" vertex="1" parent="1">
          <mxGeometry x="466.5" y="644" width="60" height="40" as="geometry" />
        </mxCell>
        <mxCell id="7ZN2Juc46d9L3Nv0C-_P-216" value="" style="endArrow=none;html=1;exitX=0.5;exitY=1;exitDx=0;exitDy=0;entryX=0.5;entryY=0;entryDx=0;entryDy=0;" edge="1" source="7ZN2Juc46d9L3Nv0C-_P-208" target="7ZN2Juc46d9L3Nv0C-_P-215" parent="1">
          <mxGeometry width="50" height="50" relative="1" as="geometry">
            <mxPoint x="499" y="614" as="sourcePoint" />
            <mxPoint x="499" y="634" as="targetPoint" />
          </mxGeometry>
        </mxCell>
        <mxCell id="7ZN2Juc46d9L3Nv0C-_P-217" value="Tachers" style="rounded=0;whiteSpace=wrap;html=1;" vertex="1" parent="1">
          <mxGeometry x="446.5" y="574" width="100" height="30" as="geometry" />
        </mxCell>
        <mxCell id="7ZN2Juc46d9L3Nv0C-_P-218" value="" style="endArrow=none;html=1;exitX=0.5;exitY=0;exitDx=0;exitDy=0;" edge="1" source="7ZN2Juc46d9L3Nv0C-_P-217" target="7ZN2Juc46d9L3Nv0C-_P-219" parent="1">
          <mxGeometry width="50" height="50" relative="1" as="geometry">
            <mxPoint x="489" y="574" as="sourcePoint" />
            <mxPoint x="524" y="544" as="targetPoint" />
          </mxGeometry>
        </mxCell>
        <mxCell id="7ZN2Juc46d9L3Nv0C-_P-219" value="Tid" style="ellipse;whiteSpace=wrap;html=1;" vertex="1" parent="1">
          <mxGeometry x="459" y="504" width="70" height="40" as="geometry" />
        </mxCell>
        <mxCell id="7ZN2Juc46d9L3Nv0C-_P-220" value="" style="endArrow=none;html=1;entryX=0;entryY=0.5;entryDx=0;entryDy=0;" edge="1" target="7ZN2Juc46d9L3Nv0C-_P-217" parent="1">
          <mxGeometry width="50" height="50" relative="1" as="geometry">
            <mxPoint x="409" y="589" as="sourcePoint" />
            <mxPoint x="439" y="584" as="targetPoint" />
          </mxGeometry>
        </mxCell>
        <mxCell id="7ZN2Juc46d9L3Nv0C-_P-221" value="Name" style="ellipse;whiteSpace=wrap;html=1;" vertex="1" parent="1">
          <mxGeometry x="359" y="569" width="60" height="40" as="geometry" />
        </mxCell>
        <mxCell id="7ZN2Juc46d9L3Nv0C-_P-222" value="Cnic" style="ellipse;whiteSpace=wrap;html=1;" vertex="1" parent="1">
          <mxGeometry x="579" y="569" width="60" height="40" as="geometry" />
        </mxCell>
        <mxCell id="7ZN2Juc46d9L3Nv0C-_P-223" value="" style="endArrow=none;html=1;" edge="1" source="7ZN2Juc46d9L3Nv0C-_P-217" parent="1">
          <mxGeometry width="50" height="50" relative="1" as="geometry">
            <mxPoint x="546.5" y="639" as="sourcePoint" />
            <mxPoint x="579" y="589" as="targetPoint" />
          </mxGeometry>
        </mxCell>
        <mxCell id="7ZN2Juc46d9L3Nv0C-_P-224" value="Email" style="ellipse;whiteSpace=wrap;html=1;" vertex="1" parent="1">
          <mxGeometry x="466.5" y="644" width="60" height="40" as="geometry" />
        </mxCell>
        <mxCell id="7ZN2Juc46d9L3Nv0C-_P-225" value="" style="endArrow=none;html=1;exitX=0.5;exitY=1;exitDx=0;exitDy=0;entryX=0.5;entryY=0;entryDx=0;entryDy=0;" edge="1" source="7ZN2Juc46d9L3Nv0C-_P-217" target="7ZN2Juc46d9L3Nv0C-_P-224" parent="1">
          <mxGeometry width="50" height="50" relative="1" as="geometry">
            <mxPoint x="499" y="614" as="sourcePoint" />
            <mxPoint x="499" y="634" as="targetPoint" />
          </mxGeometry>
        </mxCell>
        <mxCell id="7ZN2Juc46d9L3Nv0C-_P-244" value="Admin" style="rounded=0;whiteSpace=wrap;html=1;" vertex="1" parent="1">
          <mxGeometry x="1352.5" y="213" width="100" height="30" as="geometry" />
        </mxCell>
        <mxCell id="7ZN2Juc46d9L3Nv0C-_P-245" value="" style="endArrow=none;html=1;exitX=0.5;exitY=0;exitDx=0;exitDy=0;" edge="1" source="7ZN2Juc46d9L3Nv0C-_P-244" target="7ZN2Juc46d9L3Nv0C-_P-246" parent="1">
          <mxGeometry width="50" height="50" relative="1" as="geometry">
            <mxPoint x="1395" y="213" as="sourcePoint" />
            <mxPoint x="1430" y="183" as="targetPoint" />
          </mxGeometry>
        </mxCell>
        <mxCell id="7ZN2Juc46d9L3Nv0C-_P-246" value="Aid" style="ellipse;whiteSpace=wrap;html=1;" vertex="1" parent="1">
          <mxGeometry x="1365" y="143" width="70" height="40" as="geometry" />
        </mxCell>
        <mxCell id="7ZN2Juc46d9L3Nv0C-_P-247" value="" style="endArrow=none;html=1;entryX=0;entryY=0.5;entryDx=0;entryDy=0;" edge="1" target="7ZN2Juc46d9L3Nv0C-_P-244" parent="1">
          <mxGeometry width="50" height="50" relative="1" as="geometry">
            <mxPoint x="1315" y="228" as="sourcePoint" />
            <mxPoint x="1345" y="223" as="targetPoint" />
          </mxGeometry>
        </mxCell>
        <mxCell id="7ZN2Juc46d9L3Nv0C-_P-248" value="Name" style="ellipse;whiteSpace=wrap;html=1;" vertex="1" parent="1">
          <mxGeometry x="1265" y="208" width="60" height="40" as="geometry" />
        </mxCell>
        <mxCell id="7ZN2Juc46d9L3Nv0C-_P-249" value="Cnic" style="ellipse;whiteSpace=wrap;html=1;" vertex="1" parent="1">
          <mxGeometry x="1485" y="208" width="60" height="40" as="geometry" />
        </mxCell>
        <mxCell id="7ZN2Juc46d9L3Nv0C-_P-250" value="" style="endArrow=none;html=1;" edge="1" source="7ZN2Juc46d9L3Nv0C-_P-244" parent="1">
          <mxGeometry width="50" height="50" relative="1" as="geometry">
            <mxPoint x="1452.5" y="278" as="sourcePoint" />
            <mxPoint x="1485" y="228" as="targetPoint" />
          </mxGeometry>
        </mxCell>
        <mxCell id="7ZN2Juc46d9L3Nv0C-_P-251" value="Email" style="ellipse;whiteSpace=wrap;html=1;" vertex="1" parent="1">
          <mxGeometry x="1372.5" y="283" width="60" height="40" as="geometry" />
        </mxCell>
        <mxCell id="7ZN2Juc46d9L3Nv0C-_P-252" value="" style="endArrow=none;html=1;exitX=0.5;exitY=1;exitDx=0;exitDy=0;entryX=0.5;entryY=0;entryDx=0;entryDy=0;" edge="1" source="7ZN2Juc46d9L3Nv0C-_P-244" target="7ZN2Juc46d9L3Nv0C-_P-251" parent="1">
          <mxGeometry width="50" height="50" relative="1" as="geometry">
            <mxPoint x="1405" y="253" as="sourcePoint" />
            <mxPoint x="1405" y="273" as="targetPoint" />
          </mxGeometry>
        </mxCell>
        <mxCell id="7ZN2Juc46d9L3Nv0C-_P-253" value="Students" style="rounded=0;whiteSpace=wrap;html=1;" vertex="1" parent="1">
          <mxGeometry x="1352.5" y="213" width="100" height="30" as="geometry" />
        </mxCell>
        <mxCell id="7ZN2Juc46d9L3Nv0C-_P-254" value="" style="endArrow=none;html=1;exitX=0.5;exitY=0;exitDx=0;exitDy=0;" edge="1" source="7ZN2Juc46d9L3Nv0C-_P-253" target="7ZN2Juc46d9L3Nv0C-_P-255" parent="1">
          <mxGeometry width="50" height="50" relative="1" as="geometry">
            <mxPoint x="1395" y="213" as="sourcePoint" />
            <mxPoint x="1430" y="183" as="targetPoint" />
          </mxGeometry>
        </mxCell>
        <mxCell id="7ZN2Juc46d9L3Nv0C-_P-255" value="Student_id" style="ellipse;whiteSpace=wrap;html=1;" vertex="1" parent="1">
          <mxGeometry x="1365" y="143" width="70" height="40" as="geometry" />
        </mxCell>
        <mxCell id="7ZN2Juc46d9L3Nv0C-_P-256" value="" style="endArrow=none;html=1;entryX=0;entryY=0.5;entryDx=0;entryDy=0;" edge="1" target="7ZN2Juc46d9L3Nv0C-_P-253" parent="1">
          <mxGeometry width="50" height="50" relative="1" as="geometry">
            <mxPoint x="1315" y="228" as="sourcePoint" />
            <mxPoint x="1345" y="223" as="targetPoint" />
          </mxGeometry>
        </mxCell>
        <mxCell id="7ZN2Juc46d9L3Nv0C-_P-257" value="Name" style="ellipse;whiteSpace=wrap;html=1;" vertex="1" parent="1">
          <mxGeometry x="1265" y="208" width="60" height="40" as="geometry" />
        </mxCell>
        <mxCell id="7ZN2Juc46d9L3Nv0C-_P-258" value="Cnic" style="ellipse;whiteSpace=wrap;html=1;" vertex="1" parent="1">
          <mxGeometry x="1485" y="208" width="60" height="40" as="geometry" />
        </mxCell>
        <mxCell id="7ZN2Juc46d9L3Nv0C-_P-259" value="" style="endArrow=none;html=1;" edge="1" source="7ZN2Juc46d9L3Nv0C-_P-253" parent="1">
          <mxGeometry width="50" height="50" relative="1" as="geometry">
            <mxPoint x="1452.5" y="278" as="sourcePoint" />
            <mxPoint x="1485" y="228" as="targetPoint" />
          </mxGeometry>
        </mxCell>
        <mxCell id="7ZN2Juc46d9L3Nv0C-_P-260" value="Email" style="ellipse;whiteSpace=wrap;html=1;" vertex="1" parent="1">
          <mxGeometry x="1372.5" y="283" width="60" height="40" as="geometry" />
        </mxCell>
        <mxCell id="7ZN2Juc46d9L3Nv0C-_P-261" value="" style="endArrow=none;html=1;exitX=0.5;exitY=1;exitDx=0;exitDy=0;entryX=0.5;entryY=0;entryDx=0;entryDy=0;" edge="1" source="7ZN2Juc46d9L3Nv0C-_P-253" target="7ZN2Juc46d9L3Nv0C-_P-260" parent="1">
          <mxGeometry width="50" height="50" relative="1" as="geometry">
            <mxPoint x="1405" y="253" as="sourcePoint" />
            <mxPoint x="1405" y="273" as="targetPoint" />
          </mxGeometry>
        </mxCell>
        <mxCell id="7ZN2Juc46d9L3Nv0C-_P-262" value="Attendence" style="rounded=0;whiteSpace=wrap;html=1;" vertex="1" parent="1">
          <mxGeometry x="1198.5" y="521" width="100" height="30" as="geometry" />
        </mxCell>
        <mxCell id="7ZN2Juc46d9L3Nv0C-_P-263" value="" style="endArrow=none;html=1;exitX=0.5;exitY=0;exitDx=0;exitDy=0;" edge="1" source="7ZN2Juc46d9L3Nv0C-_P-262" target="7ZN2Juc46d9L3Nv0C-_P-264" parent="1">
          <mxGeometry width="50" height="50" relative="1" as="geometry">
            <mxPoint x="1241" y="521" as="sourcePoint" />
            <mxPoint x="1276" y="491" as="targetPoint" />
          </mxGeometry>
        </mxCell>
        <mxCell id="7ZN2Juc46d9L3Nv0C-_P-264" value="Attend_id" style="ellipse;whiteSpace=wrap;html=1;" vertex="1" parent="1">
          <mxGeometry x="1211" y="451" width="70" height="40" as="geometry" />
        </mxCell>
        <mxCell id="7ZN2Juc46d9L3Nv0C-_P-265" value="" style="endArrow=none;html=1;entryX=0;entryY=0.5;entryDx=0;entryDy=0;" edge="1" target="7ZN2Juc46d9L3Nv0C-_P-262" parent="1">
          <mxGeometry width="50" height="50" relative="1" as="geometry">
            <mxPoint x="1161" y="536" as="sourcePoint" />
            <mxPoint x="1191" y="531" as="targetPoint" />
          </mxGeometry>
        </mxCell>
        <mxCell id="7ZN2Juc46d9L3Nv0C-_P-266" value="status" style="ellipse;whiteSpace=wrap;html=1;" vertex="1" parent="1">
          <mxGeometry x="1111" y="516" width="60" height="40" as="geometry" />
        </mxCell>
      </root>
    </mxGraphModel>
  </diagram>
</mxfile>
